<svg width="1920" height="388" viewBox="0 0 1920 388" fill="none" xmlns="http://www.w3.org/2000/svg">
<rect width="1920" height="388" fill="#02076F"/>
<rect width="1443" height="388" transform="translate(239)" fill="#02076F"/>
<path d="M240.222 0.429688H1325.94C1361.39 0.429688 1390.17 29.2142 1390.17 64.6638V65.4C1390.17 100.85 1361.39 129.634 1325.94 129.634H240.222V0.438263V0.429688Z" fill="url(#paint0_linear_244_1791)"/>
<path d="M978.909 129.617H1566.36C1601.81 129.617 1630.59 158.401 1630.59 193.851V194.587C1630.59 230.037 1601.81 258.821 1566.36 258.821H978.909V129.625V129.617Z" fill="url(#paint1_linear_244_1791)"/>
<path d="M212 129.617H799.448C834.897 129.617 863.682 158.401 863.682 193.851V194.587C863.682 230.037 834.897 258.821 799.448 258.821H212V129.625V129.617Z" fill="url(#paint2_linear_244_1791)"/>
<path d="M1269.17 388L881.044 388C845.594 388 816.81 359.215 816.81 323.766V323.03C816.81 287.581 845.594 258.796 881.044 258.796L1269.17 258.796V387.991V388Z" fill="url(#paint3_linear_244_1791)"/>
<path d="M502.257 388L114.135 388C78.6852 388 49.9007 359.215 49.9007 323.766V323.03C49.9007 287.581 78.6852 258.796 114.135 258.796L502.257 258.796V387.991V388Z" fill="url(#paint4_linear_244_1791)"/>
<defs>
<linearGradient id="paint0_linear_244_1791" x1="972.474" y1="65.0233" x2="1394.24" y2="65.0233" gradientUnits="userSpaceOnUse">
<stop stop-color="#02076F"/>
<stop offset="1" stop-color="#2100B0"/>
</linearGradient>
<linearGradient id="paint1_linear_244_1791" x1="992.741" y1="194.219" x2="1619.54" y2="194.219" gradientUnits="userSpaceOnUse">
<stop stop-color="#02076F"/>
<stop offset="1" stop-color="#2100B0"/>
</linearGradient>
<linearGradient id="paint2_linear_244_1791" x1="225.832" y1="194.219" x2="852.626" y2="194.219" gradientUnits="userSpaceOnUse">
<stop stop-color="#02076F"/>
<stop offset="1" stop-color="#2100B0"/>
</linearGradient>
<linearGradient id="paint3_linear_244_1791" x1="837.566" y1="323.406" x2="1268.49" y2="323.406" gradientUnits="userSpaceOnUse">
<stop stop-color="#2100B0"/>
<stop offset="1" stop-color="#02076F"/>
</linearGradient>
<linearGradient id="paint4_linear_244_1791" x1="70.657" y1="323.406" x2="501.579" y2="323.406" gradientUnits="userSpaceOnUse">
<stop stop-color="#2100B0"/>
<stop offset="1" stop-color="#02076F"/>
</linearGradient>
</defs>
</svg>
