<svg width="28" height="28" viewBox="0 0 28 28" fill="none" xmlns="http://www.w3.org/2000/svg">
<g id="fb">
<path id="&#239;&#136;&#177; &#239;&#142;&#158; &#239;&#133;&#173; &#239;&#130;&#153;" d="M19 15.25H16.0703V24H12.1641V15.25H9V11.6172H12.1641V8.88281C12.1641 7.84115 12.3594 6.95573 12.75 6.22656C13.1406 5.4974 13.6875 4.95052 14.3906 4.58594C15.1198 4.19531 15.9531 4 16.8906 4C17.3073 4 17.75 4.02604 18.2188 4.07812C18.6875 4.10417 19.0521 4.14323 19.3125 4.19531L19.7031 4.23438V7.32031H18.1406C17.4115 7.32031 16.8776 7.51562 16.5391 7.90625C16.2266 8.27083 16.0703 8.72656 16.0703 9.27344V11.6172H19.5469L19 15.25Z" fill="white"/>
</g>
</svg>
