<svg width="28" height="28" viewBox="0 0 28 28" fill="none" xmlns="http://www.w3.org/2000/svg">
<g id="in">
<path id="&#239;&#136;&#177; &#239;&#142;&#158; &#239;&#133;&#173; &#239;&#130;&#153;" d="M8.90625 22.5H5.27344V10.8203H8.90625V22.5ZM7.10938 9.21875C6.53646 9.21875 6.04167 9.01042 5.625 8.59375C5.20833 8.17708 5 7.68229 5 7.10938C5 6.53646 5.20833 6.04167 5.625 5.625C6.04167 5.20833 6.53646 5 7.10938 5C7.68229 5 8.17708 5.20833 8.59375 5.625C9.01042 6.04167 9.21875 6.53646 9.21875 7.10938C9.21875 7.47396 9.11458 7.82552 8.90625 8.16406C8.72396 8.47656 8.46354 8.73698 8.125 8.94531C7.8125 9.1276 7.47396 9.21875 7.10938 9.21875ZM22.5 22.5H18.8672V16.7969C18.8672 16.3542 18.8542 16.0026 18.8281 15.7422C18.8021 15.4557 18.737 15.1432 18.6328 14.8047C18.5286 14.4401 18.3333 14.1667 18.0469 13.9844C17.7865 13.8021 17.4349 13.7109 16.9922 13.7109C16.1328 13.7109 15.5469 13.9844 15.2344 14.5312C14.9479 15.0781 14.8047 15.8073 14.8047 16.7188V22.5H11.1719V10.8203H14.6875V12.4219H14.7266C14.987 11.901 15.4167 11.4583 16.0156 11.0938C16.6146 10.7031 17.3307 10.5078 18.1641 10.5078C19.0495 10.5078 19.7786 10.651 20.3516 10.9375C20.9505 11.1979 21.3932 11.6016 21.6797 12.1484C21.9922 12.6693 22.2005 13.2422 22.3047 13.8672C22.4349 14.4922 22.5 15.2344 22.5 16.0938V22.5Z" fill="white"/>
</g>
</svg>
