<svg width="186" height="29" viewBox="0 0 186 29" fill="none" xmlns="http://www.w3.org/2000/svg">
<g id="ae">
<g id="af">
<g id="Group">
<path id="Vector" d="M60.2602 24.388C60.1787 24.2507 60.1012 24.1115 60.0296 23.9643C59.958 23.8171 59.8923 23.6739 59.8346 23.5307C58.7983 20.7938 57.762 18.0827 56.7297 15.3955C55.6973 12.7103 54.667 9.99321 53.6248 7.26025C53.6248 7.21848 53.6188 7.18267 53.6049 7.15284C53.5949 7.123 53.585 7.0872 53.585 7.05538C53.585 6.83061 53.7321 6.71924 54.0285 6.71924H57.9151C58.2214 6.71924 58.4303 6.87238 58.5437 7.1787L62.2354 18.1781L65.6506 7.1787C65.762 6.87238 65.9827 6.71924 66.3149 6.71924H70.2373C70.4203 6.71924 70.5536 6.75504 70.6311 6.82068C70.7087 6.88632 70.7425 6.9798 70.7425 7.09119C70.7425 7.15683 70.7425 7.19858 70.7325 7.22444V7.26025L68.5825 13.4183L70.2015 18.1622L74.112 7.1787C74.2234 6.87238 74.4441 6.71924 74.7763 6.71924H78.5814C78.7644 6.71924 78.8977 6.75504 78.9753 6.82068C79.0528 6.88632 79.0865 6.9798 79.0865 7.09119C79.0865 7.15683 79.0866 7.19858 79.0766 7.22444V7.26025C78.5297 8.67447 77.9687 10.0887 77.3959 11.4989C76.823 12.9092 76.2522 14.3174 75.6754 15.7217C75.0985 17.1319 74.5257 18.5401 73.9588 19.9544C73.3919 21.3686 72.841 22.7788 72.3 24.1871C72.2702 24.2746 72.1985 24.376 72.0812 24.4834C71.9698 24.5908 71.8305 24.6465 71.6734 24.6465H68.7177C68.5386 24.6465 68.4054 24.6107 68.3139 24.5451C68.2224 24.4795 68.1548 24.386 68.115 24.2746L66.2055 19.2542C65.929 19.9842 65.6645 20.7042 65.398 21.4084C65.1334 22.1125 64.8669 22.8325 64.6023 23.5625C64.5606 23.6739 64.5148 23.7932 64.4651 23.9205C64.4134 24.0438 64.3537 24.1612 64.2761 24.2726C64.1985 24.384 64.1229 24.4715 64.0315 24.5431C63.94 24.6147 63.8326 24.6505 63.7093 24.6505H60.7535C60.4989 24.6505 60.3239 24.563 60.2483 24.3959L60.2642 24.386L60.2602 24.388Z" fill="white"/>
<path id="Vector_2" d="M84.0812 7.27179C84.0812 7.10272 84.127 6.97143 84.2184 6.868C84.3099 6.76656 84.4432 6.71484 84.6123 6.71484H96.5863C96.7653 6.71484 96.8986 6.76657 96.9941 6.87398C97.0916 6.97542 97.1373 7.11863 97.1373 7.29765V10.2852C97.1373 10.4224 97.0916 10.5497 96.9941 10.679C96.8966 10.8024 96.7535 10.868 96.5705 10.868H88.7475V13.8595H94.7823C94.9354 13.8595 95.0627 13.8953 95.1602 13.9669C95.2576 14.0385 95.3133 14.1618 95.3133 14.3289V16.9386C95.3133 17.0499 95.2676 17.1574 95.1801 17.2648C95.0926 17.3722 94.9613 17.4239 94.7923 17.4239H88.7455V20.5129H96.8588C97.2208 20.5129 97.3999 20.6959 97.3999 21.0638V24.0971C97.3999 24.1787 97.37 24.2503 97.3024 24.312C97.2725 24.5367 97.1035 24.6481 96.8071 24.6481H84.6023C84.4431 24.6481 84.3119 24.6063 84.2184 24.5208C84.121 24.4333 84.0752 24.306 84.0752 24.127V7.27179H84.0812Z" fill="white"/>
<path id="Vector_3" d="M108.978 7.18429C108.988 7.13855 109.014 7.08284 109.056 7.02516C109.101 6.96947 109.153 6.91777 109.219 6.86605C109.284 6.81434 109.352 6.77852 109.423 6.75465C109.495 6.72482 109.567 6.71289 109.628 6.71289H112.717C112.855 6.71289 112.972 6.75466 113.069 6.84019C113.167 6.92572 113.239 6.99932 113.288 7.06496L113.589 7.75515L119.926 24.1012C119.991 24.2643 119.977 24.3916 119.89 24.495C119.802 24.5964 119.649 24.6482 119.43 24.6482H115.964C115.781 24.6482 115.637 24.6123 115.534 24.5467C115.43 24.4811 115.355 24.3637 115.299 24.2046C115.136 23.7968 114.983 23.3871 114.83 22.9793C114.677 22.5716 114.523 22.1618 114.37 21.7541H107.962C107.808 22.1618 107.655 22.5716 107.496 22.9793C107.337 23.3871 107.184 23.7968 107.031 24.2046C106.923 24.501 106.718 24.6482 106.412 24.6482H102.854C102.701 24.6482 102.573 24.6064 102.476 24.5248C102.374 24.4433 102.358 24.3259 102.42 24.1628L108.976 7.19027V7.18429H108.978ZM111.174 12.3518C111.021 12.7596 110.868 13.2052 110.708 13.6785C110.549 14.1519 110.396 14.6333 110.243 15.1126C110.09 15.592 109.937 16.0734 109.778 16.5428C109.618 17.0122 109.465 17.4577 109.312 17.8655H113.02L111.172 12.3498L111.174 12.3518Z" fill="white"/>
<path id="Vector_4" d="M124.95 7.23616C124.95 7.09295 124.996 6.96565 125.094 6.86421C125.191 6.76277 125.324 6.70508 125.491 6.70508H129.066C129.203 6.70508 129.326 6.75084 129.438 6.84831C129.549 6.94577 129.611 7.07306 129.617 7.23616V20.3699H136.254C136.397 20.3699 136.525 20.4156 136.626 20.5131C136.727 20.6105 136.785 20.7438 136.785 20.9109V24.0874C136.785 24.2246 136.739 24.3479 136.648 24.4593C136.556 24.5707 136.423 24.6324 136.254 24.6384H125.475C125.123 24.6384 124.944 24.4593 124.944 24.1073V7.23616H124.95Z" fill="white"/>
<path id="Vector_5" d="M141.77 7.24593C141.77 7.10272 141.815 6.97542 141.903 6.87398C141.99 6.77254 142.122 6.71484 142.301 6.71484H145.849C145.972 6.71484 146.1 6.76059 146.237 6.85805C146.374 6.95551 146.442 7.08283 146.442 7.24593V24.1111C146.442 24.4631 146.243 24.6421 145.849 24.6421H142.301C141.949 24.6421 141.77 24.4631 141.77 24.1111V7.24593Z" fill="white"/>
<path id="Vector_6" d="M151.42 7.27179C151.42 7.10272 151.466 6.97144 151.558 6.87398C151.649 6.77651 151.762 6.72678 151.89 6.71484H163.44C163.623 6.71484 163.762 6.76657 163.86 6.87398C163.951 6.97542 163.997 7.11863 163.997 7.29765V10.2852C163.997 10.4224 163.951 10.5497 163.854 10.679C163.757 10.8083 163.613 10.868 163.43 10.868H156.093V14.6114H161.511C161.664 14.6114 161.791 14.6531 161.899 14.7387C162 14.8262 162.058 14.9575 162.058 15.1424V18.0266C162.058 18.1638 162.012 18.2911 161.921 18.4204C161.829 18.5437 161.702 18.6094 161.543 18.6094H156.099V24.1389C156.099 24.487 155.916 24.66 155.542 24.66H151.86C151.57 24.6183 151.426 24.4512 151.426 24.1548V7.27375H151.42V7.27179Z" fill="white"/>
<path id="Vector_7" d="M177.203 13.3328L180.119 7.09314C180.164 6.99568 180.206 6.92406 180.242 6.88428C180.272 6.83853 180.308 6.80671 180.339 6.78682C180.371 6.76693 180.405 6.757 180.441 6.75103C180.477 6.74506 180.518 6.73511 180.568 6.72119H185.215C185.27 6.72119 185.316 6.74106 185.352 6.77687C185.388 6.81267 185.408 6.85444 185.408 6.90417C185.408 6.99169 185.352 7.09313 185.238 7.20452L179.514 17.3348V24.0856C179.514 24.4635 179.331 24.6525 178.963 24.6525H175.353C175.194 24.6525 175.066 24.6008 174.981 24.4993C174.895 24.3979 174.848 24.2586 174.848 24.0796V17.3089L169.139 7.20452C169.038 7.10308 168.98 6.99964 168.98 6.90417C168.98 6.85842 168.996 6.81267 169.026 6.77687C169.056 6.74106 169.103 6.72119 169.159 6.72119H173.805C173.861 6.7371 173.907 6.74705 173.939 6.75103C173.968 6.75103 174.004 6.76693 174.036 6.78682C174.068 6.80671 174.102 6.83853 174.134 6.88428C174.163 6.93003 174.211 6.99568 174.267 7.09314L177.209 13.3328H177.203Z" fill="white"/>
</g>
<g id="Group_2">
<path id="Vector_8" d="M34.8718 3.78091L26.5245 21.6817C25.6294 23.6012 26.4599 25.8828 28.3794 26.7779L28.383 26.7796C30.3025 27.6747 32.5842 26.8443 33.4793 24.9248L41.8265 7.02398C42.7216 5.10447 41.8911 2.82282 39.9716 1.92774L39.968 1.92605C38.0485 1.03097 35.7668 1.86139 34.8718 3.78091Z" fill="url(#paint0_linear_64_2052)"/>
<path id="Vector_9" d="M18.2189 3.8292L9.9322 21.6001C9.03711 23.5196 9.8676 25.8013 11.7871 26.6964L11.7907 26.6981C13.7102 27.5931 15.9919 26.7627 16.887 24.8432L25.1737 7.07226C26.0688 5.15275 25.2383 2.87101 23.3188 1.97593L23.3152 1.97426C21.3957 1.07917 19.114 1.90968 18.2189 3.8292Z" fill="url(#paint1_linear_64_2052)"/>
<path id="Vector_10" d="M2.53808 11.8662H40.9267C42.329 11.8662 43.4647 13.002 43.4647 14.4022C43.4647 15.8025 42.329 16.9383 40.9267 16.9383H2.53808C1.1358 16.9383 0 15.8025 0 14.4022C0 13.002 1.1358 11.8662 2.53808 11.8662Z" fill="url(#paint2_linear_64_2052)"/>
<path id="Vector_11" d="M3.52554 1.98311L3.52194 1.98479C1.60242 2.87988 0.771998 5.16155 1.66708 7.08106L10.0118 24.9764C10.9069 26.8959 13.1885 27.7264 15.108 26.8313L15.1116 26.8296C17.0312 25.9345 17.8616 23.6528 16.9665 21.7333L8.62179 3.83803C7.7267 1.91851 5.44506 1.08803 3.52554 1.98311Z" fill="url(#paint3_linear_64_2052)"/>
<path id="Vector_12" d="M20.0686 1.94157L20.065 1.94325C18.1455 2.83833 17.315 5.12002 18.21 7.03954L26.5766 24.9817C27.4717 26.9012 29.7534 27.7317 31.673 26.8366L31.6766 26.8349C33.5961 25.9398 34.4265 23.6582 33.5314 21.7386L25.1648 3.79646C24.2698 1.87695 21.9881 1.04648 20.0686 1.94157Z" fill="url(#paint4_linear_64_2052)"/>
<path id="Vector_13" opacity="0.5" d="M12.3481 11.8662L14.7171 16.9423H22.8165L20.4516 11.8662H12.3481Z" fill="url(#paint5_linear_64_2052)"/>
<path id="Vector_14" opacity="0.5" d="M2.53808 11.8662C1.13381 11.8662 0 13.0039 0 14.4042C0 15.8025 1.13381 16.9423 2.53808 16.9423H6.24958L3.88467 11.8722H2.53604V11.8662H2.53808Z" fill="url(#paint6_linear_64_2052)"/>
<path id="Vector_15" opacity="0.5" d="M40.9425 11.8663H28.9268L31.2918 16.9364H40.9425C42.3408 16.9364 43.4806 15.8026 43.4806 14.3984C43.4806 13.0001 42.3468 11.8604 40.9425 11.8604V11.8663Z" fill="url(#paint7_linear_64_2052)"/>
</g>
</g>
</g>
<defs>
<linearGradient id="paint0_linear_64_2052" x1="51.2037" y1="25.564" x2="51.4291" y2="4.0375" gradientUnits="userSpaceOnUse">
<stop stop-color="#984F29"/>
<stop offset="1" stop-color="#FF5942"/>
</linearGradient>
<linearGradient id="paint1_linear_64_2052" x1="37.5747" y1="25.4131" x2="37.8387" y2="4.11243" gradientUnits="userSpaceOnUse">
<stop stop-color="#984F29"/>
<stop offset="1" stop-color="#FF5942"/>
</linearGradient>
<linearGradient id="paint2_linear_64_2052" x1="1.07409" y1="839.143" x2="42.4085" y2="839.143" gradientUnits="userSpaceOnUse">
<stop stop-color="#FF833D"/>
<stop offset="1" stop-color="#FF9C42"/>
</linearGradient>
<linearGradient id="paint3_linear_64_2052" x1="-15.5832" y1="14.6673" x2="0.704064" y2="14.4967" gradientUnits="userSpaceOnUse">
<stop stop-color="#FF833D"/>
<stop offset="1" stop-color="#FF5942"/>
</linearGradient>
<linearGradient id="paint4_linear_64_2052" x1="2.15099" y1="14.619" x2="18.4425" y2="14.4598" gradientUnits="userSpaceOnUse">
<stop stop-color="#FF833D"/>
<stop offset="1" stop-color="#FF5942"/>
</linearGradient>
<linearGradient id="paint5_linear_64_2052" x1="1.07424" y1="839.144" x2="42.4086" y2="839.144" gradientUnits="userSpaceOnUse">
<stop offset="0.32" stop-color="#AD512E"/>
<stop offset="0.54" stop-color="#AB512E" stop-opacity="0"/>
</linearGradient>
<linearGradient id="paint6_linear_64_2052" x1="1.07408" y1="839.144" x2="5.63297" y2="839.144" gradientUnits="userSpaceOnUse">
<stop offset="0.03" stop-color="#AB512E" stop-opacity="0"/>
<stop offset="1" stop-color="#AD512E"/>
</linearGradient>
<linearGradient id="paint7_linear_64_2052" x1="1.08806" y1="839.144" x2="42.4185" y2="839.144" gradientUnits="userSpaceOnUse">
<stop offset="0.67" stop-color="#AD512E"/>
<stop offset="1" stop-color="#AB512E" stop-opacity="0"/>
</linearGradient>
</defs>
</svg>
